<?xml version="1.0" encoding="utf-8"?>
<!-- Generator: Adobe Illustrator 22.1.0, SVG Export Plug-In . SVG Version: 6.00 Build 0)  -->
<svg version="1.1" id="Слой_1" xmlns="http://www.w3.org/2000/svg" xmlns:xlink="http://www.w3.org/1999/xlink" x="0px" y="0px"
	 viewBox="0 0 57.5 63.6" style="enable-background:new 0 0 57.5 63.6;" xml:space="preserve">
<style type="text/css">
	.st0{fill:#FECC00;}
	.st1{fill:#FF3131;}
</style>
<symbol  id="Новый_символ" viewBox="-14.9 -6.7 29.8 13.3">
	<path d="M-13.3-1.3c-0.4,0-0.9-0.1-1.2-0.4s-0.4-0.8-0.4-1.2V-5c0-0.5,0.1-0.9,0.4-1.2c0.3-0.3,0.7-0.5,1.2-0.4
		c0.4,0,0.9,0.1,1.2,0.4s0.5,0.8,0.5,1.2h-0.9c0-0.2-0.1-0.4-0.2-0.6c-0.1-0.1-0.3-0.2-0.5-0.2c-0.4,0-0.6,0.3-0.6,0.8v2.1
		c0,0.5,0.2,0.8,0.6,0.8c0.2,0,0.4,0,0.5-0.2s0.2-0.4,0.2-0.6h0.9c0,0.4-0.2,0.9-0.5,1.2C-12.4-1.4-12.9-1.3-13.3-1.3z"/>
	<path d="M-8.3-6.6v0.9h-1.1v4.3h-0.9v-4.3h-1.1v-0.9H-8.3z"/>
	<path d="M-5.8-6.6h1l-1.2,4c-0.1,0.4-0.3,0.7-0.6,1c-0.3,0.2-0.6,0.3-1,0.3h-0.2v-0.8h0.2c0.2,0,0.3,0,0.5-0.2
		C-7-2.4-6.9-2.6-6.9-2.8l-1.3-3.8h1l0.8,2.3L-5.8-6.6z"/>
	<path d="M-1.5-2.2H-1v1.7h-0.9v-0.9h-2.4v0.9h-0.9v-1.7h0.3c0.4-0.6,0.6-1.3,0.6-2l0.1-2.4h2.7C-1.5-6.6-1.5-2.2-1.5-2.2z
		 M-2.4-2.2v-3.5h-0.9L-3.4-4c0,0.6-0.1,1.2-0.4,1.8H-2.4z"/>
	<path d="M0.5-2.2h1.8v0.9h-2.7v-5.2h2.6v0.9H0.5v1.3h1.6v0.8H0.5V-2.2z"/>
	<path d="M5.3-6.6h0.9v5.2H5.3v-2.2H4v2.2H3.1v-5.2H4v2.2h1.3V-6.6z"/>
	<path d="M9.9-6.6v0.9H8.8v4.3H7.9v-4.3H6.8v-0.9H9.9z"/>
	<path d="M10.4-1.4v-5.2h0.9v2h0.4c0.4,0,0.9,0.1,1.2,0.4s0.4,0.8,0.4,1.2s-0.1,0.9-0.4,1.2c-0.3,0.3-0.8,0.4-1.2,0.4L10.4-1.4z
		 M11.4-2.2h0.4c0.4,0,0.7-0.2,0.7-0.6c0-0.1,0-0.1,0-0.2c0-0.5-0.2-0.8-0.7-0.8h-0.4V-2.2z M14-1.4v-5.2h0.9v5.2
		C14.9-1.4,14-1.4,14-1.4z"/>
	<path d="M-9.1,1.3h0.9v5.3h-0.9V4.9c0-0.8,0-1.4,0.1-1.8l0,0l-0.3,0.7l-0.2,0.7l-0.3,0.9h-1l-0.4-0.9c-0.2-0.6-0.4-1.1-0.5-1.4l0,0
		c0,0.4,0,1,0.1,1.8v1.6h-0.9V1.3h0.9l0.9,2.1c0.2,0.4,0.3,0.7,0.3,1l0,0c0.1-0.2,0.2-0.5,0.4-1L-9.1,1.3z"/>
	<path d="M-5.7,6.7c-0.5,0-0.9-0.1-1.3-0.4C-7.3,5.9-7.5,5.5-7.4,5V3c0-0.5,0.1-0.9,0.4-1.3c0.3-0.3,0.8-0.5,1.3-0.5
		s0.9,0.1,1.2,0.5C-4.1,2.1-4,2.5-4,3v1.9c0,0.5-0.1,1-0.5,1.3C-4.8,6.5-5.2,6.7-5.7,6.7z M-5.7,5.8C-5.2,5.8-5,5.5-5,4.9V3
		c0-0.6-0.2-0.9-0.7-0.9S-6.4,2.4-6.4,3v1.9C-6.4,5.5-6.2,5.8-5.7,5.8z"/>
	<path d="M-1.8,6.7c-0.4,0-0.9-0.1-1.2-0.4C-3.2,5.9-3.4,5.5-3.3,5V2.9c0-0.5,0.1-0.9,0.4-1.2s0.7-0.5,1.2-0.4
		c0.4,0,0.9,0.1,1.2,0.4C-0.3,2-0.1,2.4-0.2,2.9h-0.9c0-0.2-0.1-0.4-0.2-0.6c-0.1-0.1-0.3-0.2-0.5-0.2c-0.4,0-0.6,0.3-0.6,0.8V5
		c0,0.5,0.2,0.8,0.6,0.8c0.2,0,0.4,0,0.5-0.2C-1.1,5.4-1,5.2-1.1,5h0.9c0,0.4-0.2,0.9-0.5,1.2C-0.9,6.5-1.3,6.7-1.8,6.7z"/>
	<path d="M2.9,6.6L1.8,4.5L1.4,5v1.6H0.5V1.3h0.9v2.2l0.3-0.6l0.9-1.5h1.1L2.3,3.6l1.6,3H2.9z"/>
	<path d="M6.8,3.9C7,4,7.2,4.2,7.3,4.4c0.1,0.2,0.2,0.4,0.2,0.7C7.6,5.9,7,6.6,6.2,6.6c-0.1,0-0.1,0-0.2,0H4.3V1.3h1.5
		c0.4,0,0.7,0.1,1,0.4C7.1,2,7.3,2.4,7.3,2.8S7.1,3.6,6.8,3.9z M5.8,2.2H5.3v1.3h0.5c0.4,0,0.6-0.2,0.6-0.7S6.2,2.2,5.8,2.2z
		 M5.8,5.7c0.5,0,0.7-0.2,0.7-0.7c0-0.2,0-0.4-0.2-0.5C6.2,4.4,6,4.4,5.8,4.4H5.3v1.4L5.8,5.7z"/>
	<path d="M8.1,6.6V1.3h1v2h0.4c0.4,0,0.9,0.1,1.2,0.4C11,4.1,11.1,4.5,11.1,5c0.1,0.5-0.1,0.9-0.4,1.3C10.4,6.5,10,6.7,9.5,6.6H8.1z
		 M9.1,5.7h0.3c0.4,0,0.7-0.2,0.7-0.6c0-0.1,0-0.1,0-0.2c0-0.5-0.2-0.8-0.7-0.8H9.1V5.7z M11.7,6.6V1.3h0.9v5.3
		C12.6,6.6,11.7,6.6,11.7,6.6z"/>
</symbol>
<title>Монтажная область 1</title>
<path class="st0" d="M24.9,26.7c-0.7,2.2-9.2,2.1-4,4.5c3.1,1.5,8.8-2.4,4.9-7.7c-0.9-1.4-2.2-2.5-3.7-3.2C19,18.9,12.5,19.9,7,18.9
	c0.4,1,1.9,2.3,2.8,2.8c2.3,1.3,5.8,0.7,9.4,0.7C21.8,22.5,26.1,22.8,24.9,26.7"/>
<path class="st0" d="M22.6,3.8c0.5,2.3,1.3,2.5,4.1,2.6c-1.8,0.9-4.3,1.4-5.6-0.2C19.7,4.3,22.1,1.4,22.6,3.8"/>
<path class="st1" d="M23.1,18.9c-3-6.7-9.4-4.8-14.7-5.6c-2.3-0.3-3.3-0.9-5.1-1.7c0,2.1,3.8,5.9,7.3,6.3c1.9,0.2,4.7,0.1,6.7,0.1
	c1,0,2.1,0,3.1,0.1C21.7,18.3,22.1,18.6,23.1,18.9"/>
<path class="st0" d="M21.5,13.8c-1.3-7.1-9.3-5.9-15.2-7.1C3.7,6.1,2.8,5.4,1,4.3c-0.7,2.1,2.5,6.4,6.5,7.2c2.2,0.5,5.4,0.5,7.7,0.7
	c1.2,0.2,2.5,0.2,3.6,0.5C20.1,13,20.5,13.4,21.5,13.8"/>
<path class="st0" d="M30,18.9c3.8-6.7,12-4.8,18.6-5.6c3-0.3,4.2-0.9,6.5-1.8c0,3.1-3,5.5-6.8,6.3c-3.9,0.8-8.4,0.1-10.9,0.1
	c-1.3,0-2.7,0-4,0.1C31.8,18.2,31.3,18.6,30,18.9"/>
<path class="st1" d="M33.8,22.8c1.1-3.6,5.7-4.2,8.7-3.4c9.7,2.8-0.9,19.3-12.6,7c-4.1-4.3-8.6-11.8-6-16.2c1.6-2.6,3.2-3.2,3.8-3.9
	c-2.8-2.5,1-5.8,2.8-4.8C28.4,3.8,36,9.2,34,11.3c-0.1,0.1-1.5-2-4.5-0.5c-3.3,1.6-2.5,9.6,0.7,13.4C37.5,32.9,43.9,19.2,33.8,22.8"
	/>
<path class="st1" d="M36,13c1.4-7.1,9.1-5.9,15-7.1c2.6-0.5,3.9-1.3,5.7-2.3c0.7,2.1-2.5,6.3-6.5,7.1c-2.2,0.5-5.4,0.5-7.7,0.7
	c-1.2,0.1-2.5,0.2-3.6,0.5C37.4,12.2,37,12.6,36,13"/>
<path class="st1" d="M16.8,28.3c0.9-2.3,1.8-2.5,5-2.6c-2-0.9-4.8-1.4-6.5,0.2C13.4,27.8,15.9,30.7,16.8,28.3"/>
<path class="st0" d="M50,23.3c-0.4-2.2-1.2-2.4-4.4-2.9c2.2-0.6,5.1-0.7,6.3,0.9C53.5,23.2,50.5,25.5,50,23.3"/>
<use xlink:href="#Новый_символ"  width="29.8" height="13.3" id="XMLID_1_" x="-14.9" y="-6.7" transform="matrix(1.7942 0 0 1.7942 28.75 51.0452)" style="overflow:visible;"/>
</svg>
